<svg xmlns="http://www.w3.org/2000/svg" version="1.1" xmlns:xlink="http://www.w3.org/1999/xlink" width="1000" height="1000"><g clip-path="url(#SvgjsClipPath1003)"><rect width="1000" height="1000" fill="#ffffff"></rect><g transform="matrix(3.5,0,0,3.5,150,150)"><svg xmlns="http://www.w3.org/2000/svg" version="1.1" xmlns:xlink="http://www.w3.org/1999/xlink" width="200" height="200"><svg xmlns="http://www.w3.org/2000/svg" version="1.1" xmlns:xlink="http://www.w3.org/1999/xlink" viewBox="0 0 200 200"><rect width="200" height="200" fill="url('#gradient')"></rect><defs><linearGradient id="gradient" gradientTransform="rotate(45 0.5 0.5)"><stop offset="0%" stop-color="#ffffff"></stop><stop offset="100%" stop-color="#ffffff"></stop></linearGradient><clipPath id="SvgjsClipPath1003"><rect width="1000" height="1000" x="0" y="0" rx="350" ry="350"></rect></clipPath></defs><g><g fill="#000000" transform="matrix(7.818165862220272,0,0,7.818165862220272,4.616226905508498,155.55244358112122)" stroke="#000000" stroke-width="0"><path d="M4.50-14.22L4.50-2.64L10.47-2.64L10.47 0L1.07 0L1.07-14.22L4.50-14.22ZM23.33-7.47L23.33-6.82Q23.33-4.74 22.56-3.13Q21.79-1.53 20.37-0.67Q18.95 0.20 17.13 0.20Q15.31 0.20 13.91-0.64Q12.50-1.47 11.71-3.03Q10.93-4.58 10.89-6.59L10.89-6.59L10.89-7.39Q10.89-9.48 11.66-11.08Q12.42-12.68 13.85-13.54Q15.28-14.41 17.11-14.41L17.11-14.41Q18.92-14.41 20.33-13.55Q21.75-12.70 22.53-11.11Q23.32-9.52 23.33-7.47L23.33-7.47ZM19.84-6.76L19.84-7.41Q19.84-9.53 19.14-10.63Q18.43-11.73 17.11-11.73L17.11-11.73Q14.53-11.73 14.38-7.86L14.38-7.86L14.38-6.82Q14.38-4.73 15.07-3.60Q15.76-2.48 17.13-2.48L17.13-2.48Q18.43-2.48 19.13-3.58Q19.83-4.69 19.84-6.76L19.84-6.76Z"></path></g></g></svg></svg></g></g></svg>